Coordinates
version=1
nRows=24
nColumns=22
inDegrees=yes

Units are S.I. units (second, meters, Newtons, ...)
If the header above contains a line with 'inDegrees', this indicates whether rotational values are in degrees (yes) or radians (no).

endheader
time	pelvis_tilt	pelvis_list	pelvis_rotation	pelvis_tx	pelvis_ty	pelvis_tz	hip_flexion_r	hip_adduction_r	hip_rotation_r	knee_angle_r	ankle_angle_r	subtalar_angle_r	hip_flexion_l	hip_adduction_l	hip_rotation_l	knee_angle_l	ankle_angle_l	subtalar_angle_l	lumbar_extension	lumbar_bending	lumbar_rotation
      2.74000000	    -10.79861730	      1.11748172	     -5.05500396	      0.36111178	      0.97123601	      0.11377010	     17.95209352	     -3.74883302	     -0.82025102	    -58.96096185	      5.60960929	      6.33349536	     30.79255436	      3.53616366	     -1.40276839	    -26.50494890	     12.59535419	     -1.33215790	      2.92483392	     -0.43397436	      5.50155398
      2.75000000	    -10.67081163	      1.32419692	     -4.81068743	      0.36876059	      0.97201802	      0.11255010	     18.96760376	     -4.27318212	     -1.14162244	    -59.91082601	      6.07507394	      5.50005018	     30.02625812	      3.98081993	     -1.29275858	    -26.17729932	     12.93689723	     -1.58060000	      2.85913362	     -0.69600230	      4.95858008
      2.76000000	    -10.54188791	      1.49394531	     -4.56135052	      0.37627126	      0.97278725	      0.11137475	     19.97060780	     -4.74139485	     -1.45336480	    -60.63866619	      6.57269977	      4.72390950	     29.27139168	      4.38239561	     -1.18183748	    -25.86481798	     13.25341037	     -1.84422506	      2.77420113	     -0.91129616	      4.42102581
      2.77000000	    -10.41757656	      1.60304792	     -4.31341118	      0.38365110	      0.97354142	      0.11027710	     20.94945521	     -5.11157968	     -1.74483172	    -61.12489955	      7.16079774	      3.95547419	     28.52602469	      4.71728948	     -1.03681960	    -25.55864499	     13.57088061	     -2.13913718	      2.67882863	     -1.05525422	      3.90424251
      2.78000000	    -10.29674374	      1.67432836	     -4.07213870	      0.39091448	      0.97426847	      0.10925513	     21.91058344	     -5.41315655	     -2.01943904	    -61.38385515	      7.79692383	      3.26324541	     27.79528902	      5.00275546	     -0.88959376	    -25.26705679	     13.87945299	     -2.45465669	      2.57381809	     -1.15422831	      3.41382073
      2.79000000	    -10.17801879	      1.71355384	     -3.83943404	      0.39806567	      0.97495128	      0.10832400	     22.85056225	     -5.65052764	     -2.27782360	    -61.42389357	      8.51507026	      2.67487254	     27.08345963	      5.24059174	     -0.75392371	    -25.00011560	     14.19125518	     -2.78697508	      2.45683477	     -1.21912101	      2.95320683
      2.80000000	    -10.06175935	      1.74237662	     -3.62424742	      0.40511725	      0.97558221	      0.10746951	     23.77709234	     -5.84514285	     -2.50209220	    -61.26172587	      9.28571508	      2.26880220	     26.38296389	      5.45850418	     -0.59450911	    -24.74401210	     14.50601261	     -3.09140553	      2.33114870	     -1.27065571	      2.53038325
      2.81000000	     -9.94200156	      1.76063258	     -3.42705497	      0.41208027	      0.97615084	      0.10671571	     24.68077638	     -5.99990753	     -2.70343072	    -60.90840022	     10.12880091	      2.02391866	     25.70254992	      5.64437006	     -0.46923691	    -24.52630759	     14.82083264	     -3.35358788	      2.19025869	     -1.31225079	      2.12798802
      2.82000000	     -9.80933521	      1.77622875	     -3.25636491	      0.41900412	      0.97667542	      0.10604394	     25.54712361	     -6.12953167	     -2.88716580	    -60.36968234	     10.99965191	      1.88550586	     25.01761707	      5.81000337	     -0.35937998	    -24.32612838	     15.15718716	     -3.62067857	      2.02866523	     -1.34966411	      1.77272243
      2.83000000	     -9.66343206	      1.79412140	     -3.11641787	      0.42588986	      0.97715106	      0.10546380	     26.37847651	     -6.23711006	     -3.04803833	    -59.66319668	     11.87146702	      1.83741697	     24.33031372	      5.95892881	     -0.26621463	    -24.14708418	     15.50931013	     -3.85842203	      1.84752781	     -1.38826648	      1.45834860
      2.84000000	     -9.49811360	      1.81906049	     -3.00060931	      0.43273920	      0.97759100	      0.10495310	     27.16771665	     -6.33181429	     -3.19119963	    -58.80424682	     12.71954813	      1.82396439	     23.63345300	      6.10041761	     -0.18385298	    -23.98672314	     15.86757485	     -4.06917119	      1.63705567	     -1.43372788	      1.17270755
      2.85000000	     -9.32263736	      1.84954952	     -2.91561988	      0.43956915	      0.97797925	      0.10452011	     27.92435591	     -6.41411470	     -3.32531272	    -57.80745988	     13.51870686	      1.78330921	     22.93936625	      6.22998468	     -0.12722271	    -23.85217681	     16.23555204	     -4.23395904	      1.41292974	     -1.48038772	      0.91576880
      2.86000000	     -9.12144669	      1.88204184	     -2.85828803	      0.44639598	      0.97835758	      0.10415370	     28.62515037	     -6.48392434	     -3.45472917	    -56.67863519	     14.23661275	      1.68887629	     22.21938666	      6.35073194	     -0.07287788	    -23.72244545	     16.60945532	     -4.39128460	      1.15718825	     -1.52719280	      0.70016288
      2.87000000	     -8.92673206	      1.92273909	     -2.81250136	      0.45319190	      0.97864966	      0.10383464	     29.30879262	     -6.55806363	     -3.60167027	    -55.44506151	     14.88864261	      1.55417495	     21.53450638	      6.46669020	     -0.06299297	    -23.64214995	     16.98000417	     -4.50081176	      0.90664776	     -1.57879224	      0.47800743
      2.88000000	     -8.69804005	      1.95998829	     -2.79860810	      0.46000136	      0.97896152	      0.10359561	     29.92220179	     -6.60832301	     -3.73923692	    -54.10089357	     15.42943287	      1.36620842	     20.80138348	      6.57520242	     -0.02285401	    -23.54563645	     17.35051913	     -4.62176651	      0.61671703	     -1.62231054	      0.28158492
      2.89000000	     -8.48072719	      1.99769620	     -2.78317322	      0.46678938	      0.97918527	      0.10337569	     30.51780712	     -6.66649233	     -3.92252787	    -52.67628620	     15.90756749	      1.17828781	     20.10127057	      6.68014625	     -0.00042206	    -23.48615242	     17.72457811	     -4.72057096	      0.33889048	     -1.66184843	      0.09007846
      2.90000000	     -8.26828943	      2.02991216	     -2.76333469	      0.47355797	      0.97933608	      0.10317361	     31.08682138	     -6.72324539	     -4.15013803	    -51.18160473	     16.31989642	      0.99651683	     19.41833725	      6.77977785	      0.03393435	    -23.44883823	     18.10514955	     -4.80619809	      0.06483031	     -1.69078346	     -0.10175014
      2.91000000	     -8.08016884	      2.05983047	     -2.73008805	      0.48029583	      0.97937109	      0.10297505	     31.65489890	     -6.78711975	     -4.43681400	    -49.63810920	     16.68539528	      0.84245291	     18.78029832	      6.87751143	      0.07382015	    -23.44478117	     18.50264748	     -4.87472720	     -0.18386481	     -1.71445275	     -0.28358799
      2.92000000	     -7.88507259	      2.07886047	     -2.68646212	      0.48702082	      0.97937118	      0.10279162	     32.18034653	     -6.83361846	     -4.75297354	    -48.04184018	     16.97186680	      0.68282286	     18.13156512	      6.96927875	      0.15430332	    -23.43589162	     18.90430259	     -4.94165560	     -0.44538833	     -1.72010487	     -0.47797229
      2.93000000	     -7.68244497	      2.09756493	     -2.65104278	      0.49374432	      0.97933905	      0.10267851	     32.67088670	     -6.85919922	     -5.07799016	    -46.40795433	     17.16538240	      0.51819641	     17.46647590	      7.05713326	      0.25381459	    -23.41230376	     19.29191686	     -5.01059846	     -0.71601969	     -1.72758208	     -0.65001804
      2.94000000	     -7.51439152	      2.12480666	     -2.60588626	      0.50044683	      0.97916395	      0.10260502	     33.18152391	     -6.88602704	     -5.43648534	    -44.76890768	     17.32069700	      0.44531461	     16.86008228	      7.14369228	      0.31247867	    -23.42618802	     19.70306688	     -5.06065046	     -0.94611841	     -1.74527093	     -0.81744782
      2.95000000	     -7.33596745	      2.16001540	     -2.57969992	      0.50716772	      0.97896394	      0.10262024	     33.65554834	     -6.88439954	     -5.76918107	    -43.10829917	     17.38210058	      0.43057998	     16.22754760	      7.23023113	      0.36534641	    -23.41250848	     20.10893693	     -5.10978089	     -1.18863078	     -1.77075011	     -0.94890376
      2.96000000	     -7.16092565	      2.20761873	     -2.57047700	      0.51390049	      0.97870653	      0.10272502	     34.10989777	     -6.85842237	     -6.07270152	    -41.43743698	     17.35416379	      0.50385378	     15.59352406	      7.31916821	      0.39147917	    -23.38848662	     20.50519904	     -5.15619358	     -1.42448308	     -1.81197537	     -1.04802931
      2.97000000	     -6.98372954	      2.26528459	     -2.57576097	      0.52065475	      0.97840493	      0.10292711	     34.53433601	     -6.80777027	     -6.34789283	    -39.75998230	     17.24663555	      0.68151906	     14.94936482	      7.40608935	      0.38887459	    -23.35064131	     20.88023793	     -5.20198825	     -1.66176161	     -1.86928600	     -1.12345147
